<svg xmlns="http://www.w3.org/2000/svg" xmlns:xlink="http://www.w3.org/1999/xlink" width="500" zoomAndPan="magnify" viewBox="0 0 375 93.749996" height="125" preserveAspectRatio="xMidYMid meet" version="1.0"><defs><g/><clipPath id="fb5b054776"><path d="M 0.5 0 L 374.5 0 L 374.5 93.5 L 0.5 93.5 Z M 0.5 0 " clip-rule="nonzero"/></clipPath><clipPath id="cc92c04c34"><path d="M 50 49 L 84 49 L 84 90.132812 L 50 90.132812 Z M 50 49 " clip-rule="nonzero"/></clipPath></defs><g clip-path="url(#fb5b054776)"><path fill="#ffffff" d="M 0.5 0 L 374.5 0 L 374.5 93.5 L 0.5 93.5 Z M 0.5 0 " fill-opacity="1" fill-rule="nonzero"/><path fill="#ffffff" d="M 0.5 0 L 374.5 0 L 374.5 93.5 L 0.5 93.5 Z M 0.5 0 " fill-opacity="1" fill-rule="nonzero"/></g><path fill="#322bad" d="M 103.699219 74.746094 L 90.257812 74.746094 C 89.992188 74.746094 89.765625 74.652344 89.578125 74.464844 C 89.390625 74.277344 89.296875 74.050781 89.296875 73.785156 C 89.296875 73.519531 89.390625 73.292969 89.578125 73.105469 C 89.765625 72.917969 89.992188 72.824219 90.257812 72.824219 L 103.699219 72.824219 C 104.300781 72.863281 104.902344 72.863281 105.503906 72.824219 C 106.488281 72.707031 107.453125 72.5 108.398438 72.207031 C 109.34375 71.914062 110.257812 71.535156 111.132812 71.078125 C 112.011719 70.617188 112.839844 70.082031 113.621094 69.472656 C 114.402344 68.859375 115.121094 68.183594 115.777344 67.441406 C 116.433594 66.703125 117.019531 65.90625 117.53125 65.058594 C 118.046875 64.210938 118.476562 63.320312 118.828125 62.394531 C 119.179688 61.46875 119.445312 60.515625 119.625 59.539062 C 119.804688 58.566406 119.894531 57.582031 119.894531 56.589844 C 119.894531 55.597656 119.804688 54.613281 119.625 53.640625 C 119.445312 52.664062 119.179688 51.710938 118.828125 50.785156 C 118.476562 49.859375 118.046875 48.96875 117.53125 48.121094 C 117.019531 47.273438 116.433594 46.476562 115.777344 45.738281 C 115.121094 44.996094 114.402344 44.320312 113.621094 43.707031 C 112.839844 43.097656 112.011719 42.5625 111.132812 42.101562 C 110.257812 41.640625 109.34375 41.265625 108.398438 40.972656 C 107.453125 40.679688 106.488281 40.472656 105.503906 40.355469 C 104.226562 40.15625 102.945312 40.15625 101.664062 40.355469 C 101.371094 40.402344 101.117188 40.324219 100.894531 40.125 C 100.667969 39.933594 100.554688 39.691406 100.550781 39.394531 C 100.363281 37.855469 100.054688 36.339844 99.632812 34.847656 C 99.207031 33.355469 98.671875 31.90625 98.019531 30.5 C 97.371094 29.09375 96.613281 27.746094 95.753906 26.457031 C 94.890625 25.167969 93.9375 23.953125 92.886719 22.8125 C 91.835938 21.675781 90.703125 20.625 89.492188 19.660156 C 88.277344 18.699219 86.996094 17.835938 85.648438 17.074219 C 84.296875 16.3125 82.898438 15.660156 81.449219 15.117188 C 79.996094 14.574219 78.515625 14.148438 76.996094 13.839844 C 75.480469 13.527344 73.949219 13.335938 72.402344 13.265625 C 70.855469 13.195312 69.3125 13.246094 67.773438 13.414062 C 66.234375 13.585938 64.71875 13.875 63.226562 14.28125 C 61.730469 14.691406 60.277344 15.210938 58.867188 15.847656 C 57.453125 16.484375 56.097656 17.222656 54.800781 18.070312 C 53.503906 18.917969 52.28125 19.859375 51.132812 20.898438 C 49.984375 21.9375 48.921875 23.058594 47.945312 24.265625 C 46.972656 25.46875 46.097656 26.742188 45.320312 28.085938 C 45.132812 28.410156 44.851562 28.578125 44.476562 28.585938 L 36.484375 28.585938 C 35.761719 28.585938 35.042969 28.621094 34.320312 28.691406 C 33.601562 28.761719 32.886719 28.867188 32.175781 29.007812 C 31.46875 29.152344 30.765625 29.328125 30.074219 29.535156 C 29.382812 29.746094 28.703125 29.992188 28.035156 30.269531 C 27.367188 30.546875 26.714844 30.855469 26.074219 31.195312 C 25.4375 31.539062 24.816406 31.910156 24.214844 32.3125 C 23.613281 32.714844 23.035156 33.144531 22.476562 33.605469 C 21.917969 34.066406 21.382812 34.550781 20.871094 35.0625 C 20.359375 35.574219 19.875 36.113281 19.414062 36.671875 C 18.957031 37.230469 18.523438 37.8125 18.125 38.414062 C 17.722656 39.015625 17.351562 39.636719 17.007812 40.277344 C 16.667969 40.914062 16.359375 41.570312 16.082031 42.238281 C 15.804688 42.910156 15.5625 43.589844 15.351562 44.28125 C 15.140625 44.976562 14.96875 45.679688 14.824219 46.390625 C 14.683594 47.097656 14.578125 47.816406 14.507812 48.535156 C 14.4375 49.257812 14.402344 49.980469 14.402344 50.703125 C 14.402344 51.429688 14.4375 52.152344 14.507812 52.871094 C 14.578125 53.59375 14.683594 54.308594 14.824219 55.019531 C 14.96875 55.730469 15.140625 56.433594 15.351562 57.125 C 15.5625 57.816406 15.804688 58.5 16.082031 59.167969 C 16.359375 59.839844 16.667969 60.492188 17.007812 61.132812 C 17.351562 61.769531 17.722656 62.390625 18.125 62.992188 C 18.523438 63.59375 18.957031 64.175781 19.414062 64.738281 C 19.875 65.296875 20.359375 65.832031 20.871094 66.34375 C 21.382812 66.855469 21.917969 67.34375 22.476562 67.804688 C 23.035156 68.261719 23.613281 68.691406 24.214844 69.097656 C 24.816406 69.5 25.4375 69.871094 26.074219 70.210938 C 26.714844 70.554688 27.367188 70.863281 28.035156 71.140625 C 28.703125 71.417969 29.382812 71.660156 30.074219 71.871094 C 30.765625 72.082031 31.46875 72.257812 32.175781 72.398438 C 32.886719 72.539062 33.601562 72.644531 34.320312 72.71875 C 35.042969 72.789062 35.761719 72.824219 36.484375 72.824219 L 44.167969 72.824219 C 44.433594 72.824219 44.660156 72.917969 44.847656 73.105469 C 45.035156 73.292969 45.128906 73.519531 45.128906 73.785156 C 45.128906 74.050781 45.035156 74.277344 44.847656 74.464844 C 44.660156 74.652344 44.433594 74.746094 44.167969 74.746094 L 36.484375 74.746094 C 35.699219 74.746094 34.914062 74.707031 34.132812 74.628906 C 33.351562 74.554688 32.574219 74.4375 31.804688 74.285156 C 31.035156 74.128906 30.273438 73.9375 29.519531 73.710938 C 28.769531 73.480469 28.027344 73.214844 27.300781 72.914062 C 26.578125 72.613281 25.867188 72.277344 25.171875 71.90625 C 24.480469 71.535156 23.808594 71.128906 23.152344 70.691406 C 22.5 70.253906 21.871094 69.785156 21.261719 69.285156 C 20.65625 68.785156 20.074219 68.257812 19.515625 67.703125 C 18.960938 67.144531 18.433594 66.5625 17.9375 65.953125 C 17.4375 65.34375 16.96875 64.714844 16.535156 64.058594 C 16.097656 63.40625 15.691406 62.730469 15.324219 62.035156 C 14.953125 61.339844 14.617188 60.628906 14.316406 59.902344 C 14.015625 59.175781 13.75 58.433594 13.523438 57.683594 C 13.292969 56.929688 13.105469 56.164062 12.949219 55.394531 C 12.796875 54.621094 12.683594 53.84375 12.605469 53.058594 C 12.527344 52.277344 12.488281 51.492188 12.488281 50.703125 C 12.488281 49.917969 12.527344 49.132812 12.605469 48.347656 C 12.683594 47.566406 12.796875 46.785156 12.949219 46.015625 C 13.105469 45.242188 13.292969 44.480469 13.523438 43.726562 C 13.75 42.972656 14.015625 42.234375 14.316406 41.503906 C 14.617188 40.777344 14.953125 40.066406 15.324219 39.371094 C 15.691406 38.679688 16.097656 38.003906 16.535156 37.347656 C 16.96875 36.695312 17.4375 36.0625 17.9375 35.453125 C 18.433594 34.84375 18.960938 34.261719 19.515625 33.707031 C 20.074219 33.148438 20.65625 32.621094 21.261719 32.121094 C 21.871094 31.621094 22.5 31.152344 23.152344 30.714844 C 23.808594 30.277344 24.480469 29.875 25.171875 29.503906 C 25.867188 29.132812 26.578125 28.796875 27.300781 28.492188 C 28.027344 28.191406 28.769531 27.925781 29.519531 27.699219 C 30.273438 27.46875 31.035156 27.277344 31.804688 27.125 C 32.574219 26.96875 33.351562 26.855469 34.132812 26.777344 C 34.914062 26.699219 35.699219 26.660156 36.484375 26.660156 L 43.9375 26.660156 C 44.769531 25.269531 45.703125 23.945312 46.734375 22.695312 C 47.769531 21.449219 48.894531 20.285156 50.105469 19.207031 C 51.320312 18.132812 52.605469 17.152344 53.96875 16.273438 C 55.332031 15.398438 56.753906 14.628906 58.234375 13.96875 C 59.714844 13.308594 61.238281 12.765625 62.800781 12.339844 C 64.363281 11.914062 65.953125 11.609375 67.5625 11.429688 C 69.171875 11.246094 70.789062 11.191406 72.40625 11.257812 C 74.027344 11.324219 75.628906 11.515625 77.21875 11.828125 C 78.808594 12.144531 80.367188 12.578125 81.890625 13.128906 C 83.414062 13.683594 84.886719 14.351562 86.308594 15.128906 C 87.726562 15.910156 89.082031 16.792969 90.367188 17.78125 C 91.652344 18.769531 92.855469 19.851562 93.976562 21.023438 C 95.09375 22.195312 96.121094 23.449219 97.046875 24.78125 C 97.976562 26.109375 98.796875 27.503906 99.511719 28.960938 C 100.222656 30.417969 100.824219 31.921875 101.304688 33.46875 C 101.789062 35.019531 102.152344 36.597656 102.394531 38.203125 C 103.507812 38.105469 104.621094 38.105469 105.734375 38.203125 C 106.839844 38.328125 107.925781 38.550781 108.988281 38.875 C 110.050781 39.199219 111.078125 39.613281 112.066406 40.125 C 113.050781 40.636719 113.984375 41.234375 114.863281 41.917969 C 115.742188 42.597656 116.554688 43.355469 117.292969 44.183594 C 118.035156 45.015625 118.695312 45.90625 119.273438 46.855469 C 119.847656 47.808594 120.335938 48.804688 120.734375 49.84375 C 121.128906 50.882812 121.429688 51.953125 121.628906 53.046875 C 121.832031 54.140625 121.933594 55.246094 121.933594 56.359375 C 121.933594 57.472656 121.832031 58.578125 121.628906 59.671875 C 121.429688 60.765625 121.128906 61.835938 120.734375 62.875 C 120.335938 63.914062 119.847656 64.910156 119.273438 65.859375 C 118.695312 66.8125 118.035156 67.703125 117.292969 68.535156 C 116.554688 69.363281 115.742188 70.121094 114.863281 70.800781 C 113.984375 71.484375 113.050781 72.082031 112.066406 72.589844 C 111.078125 73.101562 110.050781 73.519531 108.988281 73.84375 C 107.925781 74.167969 106.839844 74.390625 105.734375 74.515625 C 105.0625 74.632812 104.382812 74.710938 103.699219 74.746094 Z M 103.699219 74.746094 " fill-opacity="1" fill-rule="nonzero"/><g clip-path="url(#cc92c04c34)"><path fill="#322bad" d="M 78.734375 65.128906 L 75.855469 65.128906 L 75.855469 58.398438 C 75.855469 57.828125 75.800781 57.265625 75.6875 56.710938 C 75.578125 56.152344 75.414062 55.609375 75.195312 55.085938 C 74.980469 54.558594 74.714844 54.0625 74.398438 53.589844 C 74.082031 53.117188 73.722656 52.679688 73.324219 52.277344 C 72.921875 51.875 72.484375 51.515625 72.011719 51.199219 C 71.542969 50.886719 71.042969 50.617188 70.519531 50.402344 C 69.996094 50.183594 69.453125 50.019531 68.898438 49.910156 C 68.34375 49.796875 67.78125 49.742188 67.210938 49.742188 C 66.644531 49.742188 66.082031 49.796875 65.527344 49.910156 C 64.96875 50.019531 64.429688 50.183594 63.90625 50.402344 C 63.382812 50.617188 62.882812 50.886719 62.410156 51.199219 C 61.941406 51.515625 61.503906 51.875 61.101562 52.277344 C 60.699219 52.679688 60.34375 53.117188 60.027344 53.589844 C 59.710938 54.0625 59.445312 54.558594 59.230469 55.085938 C 59.011719 55.609375 58.847656 56.152344 58.738281 56.710938 C 58.625 57.265625 58.570312 57.828125 58.570312 58.398438 L 58.570312 65.128906 L 55.691406 65.128906 C 55.375 65.128906 55.0625 65.160156 54.753906 65.222656 C 54.445312 65.285156 54.144531 65.375 53.851562 65.496094 C 53.5625 65.617188 53.285156 65.765625 53.023438 65.941406 C 52.761719 66.117188 52.519531 66.316406 52.296875 66.539062 C 52.074219 66.761719 51.875 67.003906 51.699219 67.265625 C 51.523438 67.53125 51.375 67.804688 51.253906 68.097656 C 51.132812 68.390625 51.042969 68.691406 50.980469 69 C 50.917969 69.308594 50.890625 69.621094 50.890625 69.9375 L 50.890625 85.324219 C 50.890625 85.640625 50.917969 85.953125 50.980469 86.265625 C 51.042969 86.574219 51.132812 86.875 51.253906 87.167969 C 51.375 87.457031 51.523438 87.734375 51.699219 87.996094 C 51.875 88.261719 52.074219 88.503906 52.296875 88.726562 C 52.519531 88.949219 52.761719 89.148438 53.023438 89.324219 C 53.285156 89.5 53.5625 89.648438 53.851562 89.769531 C 54.144531 89.890625 54.445312 89.980469 54.753906 90.042969 C 55.0625 90.105469 55.375 90.132812 55.691406 90.132812 L 78.734375 90.132812 C 79.050781 90.132812 79.363281 90.105469 79.671875 90.042969 C 79.980469 89.980469 80.28125 89.890625 80.570312 89.769531 C 80.863281 89.648438 81.140625 89.5 81.402344 89.324219 C 81.664062 89.148438 81.90625 88.949219 82.128906 88.726562 C 82.351562 88.503906 82.550781 88.261719 82.726562 87.996094 C 82.902344 87.734375 83.050781 87.457031 83.171875 87.167969 C 83.292969 86.875 83.382812 86.574219 83.445312 86.265625 C 83.503906 85.953125 83.535156 85.640625 83.535156 85.324219 L 83.535156 69.9375 C 83.535156 69.621094 83.503906 69.308594 83.445312 69 C 83.382812 68.691406 83.292969 68.390625 83.171875 68.097656 C 83.050781 67.804688 82.902344 67.53125 82.726562 67.265625 C 82.550781 67.003906 82.351562 66.761719 82.128906 66.539062 C 81.90625 66.316406 81.664062 66.117188 81.402344 65.941406 C 81.140625 65.765625 80.863281 65.617188 80.570312 65.496094 C 80.28125 65.375 79.980469 65.285156 79.671875 65.222656 C 79.363281 65.160156 79.050781 65.128906 78.734375 65.128906 Z M 60.492188 58.398438 C 60.492188 57.957031 60.535156 57.519531 60.621094 57.085938 C 60.707031 56.652344 60.832031 56.230469 61.003906 55.820312 C 61.171875 55.414062 61.378906 55.023438 61.625 54.65625 C 61.867188 54.289062 62.148438 53.949219 62.460938 53.636719 C 62.773438 53.324219 63.113281 53.046875 63.476562 52.800781 C 63.84375 52.554688 64.234375 52.347656 64.640625 52.179688 C 65.046875 52.007812 65.46875 51.882812 65.902344 51.796875 C 66.335938 51.707031 66.769531 51.664062 67.210938 51.664062 C 67.652344 51.664062 68.089844 51.707031 68.523438 51.796875 C 68.957031 51.882812 69.375 52.007812 69.785156 52.179688 C 70.191406 52.347656 70.578125 52.554688 70.945312 52.800781 C 71.3125 53.046875 71.652344 53.324219 71.964844 53.636719 C 72.277344 53.949219 72.554688 54.289062 72.800781 54.65625 C 73.046875 55.023438 73.253906 55.414062 73.421875 55.820312 C 73.589844 56.230469 73.71875 56.652344 73.804688 57.085938 C 73.890625 57.519531 73.933594 57.957031 73.933594 58.398438 L 73.933594 65.128906 L 60.492188 65.128906 Z M 81.617188 85.324219 C 81.609375 85.707031 81.535156 86.074219 81.386719 86.425781 C 81.238281 86.773438 81.03125 87.085938 80.761719 87.355469 C 80.492188 87.625 80.183594 87.832031 79.832031 87.980469 C 79.480469 88.128906 79.117188 88.207031 78.734375 88.210938 L 55.691406 88.210938 C 55.308594 88.207031 54.945312 88.128906 54.59375 87.980469 C 54.242188 87.832031 53.933594 87.625 53.664062 87.355469 C 53.394531 87.085938 53.1875 86.777344 53.039062 86.425781 C 52.890625 86.074219 52.816406 85.707031 52.808594 85.324219 L 52.808594 69.9375 C 52.816406 69.558594 52.890625 69.191406 53.039062 68.839844 C 53.1875 68.488281 53.394531 68.179688 53.664062 67.910156 C 53.933594 67.640625 54.242188 67.429688 54.59375 67.28125 C 54.945312 67.136719 55.308594 67.058594 55.691406 67.054688 L 78.734375 67.054688 C 79.117188 67.058594 79.480469 67.136719 79.832031 67.28125 C 80.183594 67.429688 80.492188 67.640625 80.761719 67.910156 C 81.03125 68.179688 81.238281 68.488281 81.386719 68.839844 C 81.535156 69.191406 81.609375 69.558594 81.617188 69.9375 Z M 81.617188 85.324219 " fill-opacity="1" fill-rule="nonzero"/></g><path fill="#322bad" d="M 67.210938 71.285156 C 66.667969 71.261719 66.140625 71.34375 65.628906 71.523438 C 65.117188 71.699219 64.652344 71.96875 64.242188 72.320312 C 63.828125 72.675781 63.496094 73.09375 63.242188 73.574219 C 62.988281 74.054688 62.832031 74.566406 62.769531 75.109375 C 62.707031 75.648438 62.75 76.183594 62.890625 76.707031 C 63.03125 77.234375 63.261719 77.714844 63.585938 78.152344 C 63.910156 78.589844 64.300781 78.953125 64.761719 79.242188 C 65.222656 79.53125 65.71875 79.726562 66.253906 79.824219 L 66.253906 82.785156 C 66.253906 83.050781 66.347656 83.28125 66.535156 83.46875 C 66.722656 83.65625 66.949219 83.75 67.210938 83.75 C 67.476562 83.75 67.703125 83.65625 67.890625 83.46875 C 68.078125 83.28125 68.171875 83.050781 68.171875 82.785156 L 68.171875 79.824219 C 68.707031 79.726562 69.203125 79.53125 69.664062 79.242188 C 70.125 78.953125 70.515625 78.589844 70.839844 78.152344 C 71.164062 77.714844 71.394531 77.234375 71.535156 76.707031 C 71.675781 76.183594 71.714844 75.648438 71.65625 75.109375 C 71.59375 74.566406 71.4375 74.054688 71.183594 73.574219 C 70.929688 73.09375 70.597656 72.675781 70.183594 72.320312 C 69.773438 71.96875 69.308594 71.699219 68.796875 71.523438 C 68.285156 71.34375 67.753906 71.261719 67.210938 71.285156 Z M 67.210938 78.09375 C 66.890625 78.089844 66.582031 78.023438 66.285156 77.894531 C 65.988281 77.769531 65.726562 77.589844 65.5 77.359375 C 65.273438 77.128906 65.097656 76.863281 64.976562 76.566406 C 64.855469 76.265625 64.792969 75.953125 64.792969 75.632812 C 64.792969 75.308594 64.855469 75 64.976562 74.703125 C 65.101562 74.40625 65.273438 74.144531 65.5 73.917969 C 65.726562 73.691406 65.988281 73.515625 66.285156 73.394531 C 66.582031 73.269531 66.890625 73.207031 67.210938 73.207031 C 67.535156 73.207031 67.84375 73.269531 68.136719 73.394531 C 68.433594 73.515625 68.695312 73.691406 68.921875 73.917969 C 69.152344 74.144531 69.324219 74.40625 69.449219 74.703125 C 69.570312 75 69.632812 75.308594 69.632812 75.632812 C 69.632812 75.953125 69.570312 76.265625 69.449219 76.566406 C 69.328125 76.863281 69.152344 77.128906 68.925781 77.359375 C 68.699219 77.589844 68.4375 77.769531 68.140625 77.894531 C 67.84375 78.023438 67.535156 78.089844 67.210938 78.09375 Z M 67.210938 78.09375 " fill-opacity="1" fill-rule="nonzero"/><g fill="#322bad" fill-opacity="1"><g transform="translate(127.833802, 42.527409)"><g><path d="M 8.9375 -13.59375 C 7.644531 -13.59375 6.640625 -13.101562 5.921875 -12.125 C 5.210938 -11.15625 4.859375 -9.800781 4.859375 -8.0625 C 4.859375 -4.445312 6.21875 -2.640625 8.9375 -2.640625 C 10.070312 -2.640625 11.453125 -2.925781 13.078125 -3.5 L 13.078125 -0.609375 C 11.742188 -0.0546875 10.253906 0.21875 8.609375 0.21875 C 6.253906 0.21875 4.453125 -0.492188 3.203125 -1.921875 C 1.953125 -3.359375 1.328125 -5.414062 1.328125 -8.09375 C 1.328125 -9.78125 1.628906 -11.257812 2.234375 -12.53125 C 2.847656 -13.800781 3.726562 -14.773438 4.875 -15.453125 C 6.03125 -16.128906 7.382812 -16.46875 8.9375 -16.46875 C 10.507812 -16.46875 12.09375 -16.082031 13.6875 -15.3125 L 12.578125 -12.515625 C 11.972656 -12.804688 11.363281 -13.054688 10.75 -13.265625 C 10.132812 -13.484375 9.53125 -13.59375 8.9375 -13.59375 Z M 8.9375 -13.59375 "/></g></g></g><g fill="#322bad" fill-opacity="1"><g transform="translate(145.231344, 42.527409)"><g><path d="M 2.046875 0 L 2.046875 -16.234375 L 5.484375 -16.234375 L 5.484375 -2.84375 L 12.0625 -2.84375 L 12.0625 0 Z M 2.046875 0 "/></g></g></g><g fill="#322bad" fill-opacity="1"><g transform="translate(160.985939, 42.527409)"><g><path d="M 16.765625 -8.140625 C 16.765625 -5.453125 16.097656 -3.382812 14.765625 -1.9375 C 13.441406 -0.5 11.535156 0.21875 9.046875 0.21875 C 6.554688 0.21875 4.644531 -0.5 3.3125 -1.9375 C 1.988281 -3.382812 1.328125 -5.457031 1.328125 -8.15625 C 1.328125 -10.851562 1.992188 -12.914062 3.328125 -14.34375 C 4.660156 -15.769531 6.570312 -16.484375 9.0625 -16.484375 C 11.5625 -16.484375 13.46875 -15.765625 14.78125 -14.328125 C 16.101562 -12.890625 16.765625 -10.828125 16.765625 -8.140625 Z M 4.921875 -8.140625 C 4.921875 -6.328125 5.265625 -4.960938 5.953125 -4.046875 C 6.648438 -3.128906 7.679688 -2.671875 9.046875 -2.671875 C 11.796875 -2.671875 13.171875 -4.492188 13.171875 -8.140625 C 13.171875 -11.796875 11.800781 -13.625 9.0625 -13.625 C 7.695312 -13.625 6.664062 -13.160156 5.96875 -12.234375 C 5.269531 -11.316406 4.921875 -9.953125 4.921875 -8.140625 Z M 4.921875 -8.140625 "/></g></g></g><g fill="#322bad" fill-opacity="1"><g transform="translate(181.991303, 42.527409)"><g><path d="M 15.25 -16.234375 L 15.25 -5.734375 C 15.25 -4.523438 14.976562 -3.46875 14.4375 -2.5625 C 13.90625 -1.664062 13.128906 -0.976562 12.109375 -0.5 C 11.097656 -0.0195312 9.90625 0.21875 8.53125 0.21875 C 6.4375 0.21875 4.8125 -0.3125 3.65625 -1.375 C 2.507812 -2.445312 1.9375 -3.910156 1.9375 -5.765625 L 1.9375 -16.234375 L 5.359375 -16.234375 L 5.359375 -6.296875 C 5.359375 -5.046875 5.609375 -4.128906 6.109375 -3.546875 C 6.617188 -2.960938 7.453125 -2.671875 8.609375 -2.671875 C 9.734375 -2.671875 10.550781 -2.960938 11.0625 -3.546875 C 11.570312 -4.128906 11.828125 -5.050781 11.828125 -6.3125 L 11.828125 -16.234375 Z M 15.25 -16.234375 "/></g></g></g><g fill="#322bad" fill-opacity="1"><g transform="translate(202.086384, 42.527409)"><g><path d="M 15.5 -8.265625 C 15.5 -5.597656 14.738281 -3.550781 13.21875 -2.125 C 11.707031 -0.707031 9.515625 0 6.640625 0 L 2.046875 0 L 2.046875 -16.234375 L 7.140625 -16.234375 C 9.785156 -16.234375 11.835938 -15.53125 13.296875 -14.125 C 14.765625 -12.726562 15.5 -10.773438 15.5 -8.265625 Z M 11.9375 -8.1875 C 11.9375 -11.664062 10.394531 -13.40625 7.3125 -13.40625 L 5.484375 -13.40625 L 5.484375 -2.84375 L 6.953125 -2.84375 C 10.273438 -2.84375 11.9375 -4.625 11.9375 -8.1875 Z M 11.9375 -8.1875 "/></g></g></g><g fill="#322bad" fill-opacity="1"><g transform="translate(221.826231, 42.527409)"><g/></g></g><g fill="#322bad" fill-opacity="1"><g transform="translate(230.642701, 42.527409)"><g><path d="M 11.625 -4.5 C 11.625 -3.039062 11.09375 -1.890625 10.03125 -1.046875 C 8.976562 -0.203125 7.515625 0.21875 5.640625 0.21875 C 3.910156 0.21875 2.378906 -0.101562 1.046875 -0.75 L 1.046875 -3.953125 C 2.140625 -3.460938 3.066406 -3.117188 3.828125 -2.921875 C 4.585938 -2.722656 5.28125 -2.625 5.90625 -2.625 C 6.65625 -2.625 7.234375 -2.765625 7.640625 -3.046875 C 8.046875 -3.335938 8.25 -3.769531 8.25 -4.34375 C 8.25 -4.65625 8.160156 -4.9375 7.984375 -5.1875 C 7.804688 -5.4375 7.546875 -5.675781 7.203125 -5.90625 C 6.859375 -6.132812 6.15625 -6.5 5.09375 -7 C 4.101562 -7.46875 3.359375 -7.914062 2.859375 -8.34375 C 2.367188 -8.769531 1.972656 -9.269531 1.671875 -9.84375 C 1.378906 -10.414062 1.234375 -11.082031 1.234375 -11.84375 C 1.234375 -13.28125 1.71875 -14.410156 2.6875 -15.234375 C 3.664062 -16.054688 5.015625 -16.46875 6.734375 -16.46875 C 7.578125 -16.46875 8.378906 -16.363281 9.140625 -16.15625 C 9.910156 -15.957031 10.710938 -15.675781 11.546875 -15.3125 L 10.4375 -12.640625 C 9.570312 -12.992188 8.851562 -13.238281 8.28125 -13.375 C 7.71875 -13.519531 7.160156 -13.59375 6.609375 -13.59375 C 5.960938 -13.59375 5.460938 -13.441406 5.109375 -13.140625 C 4.765625 -12.835938 4.59375 -12.441406 4.59375 -11.953125 C 4.59375 -11.648438 4.660156 -11.382812 4.796875 -11.15625 C 4.941406 -10.9375 5.164062 -10.71875 5.46875 -10.5 C 5.78125 -10.289062 6.507812 -9.914062 7.65625 -9.375 C 9.175781 -8.644531 10.21875 -7.914062 10.78125 -7.1875 C 11.34375 -6.457031 11.625 -5.5625 11.625 -4.5 Z M 11.625 -4.5 "/></g></g></g><g fill="#322bad" fill-opacity="1"><g transform="translate(246.075366, 42.527409)"><g><path d="M 11.390625 0 L 2.046875 0 L 2.046875 -16.234375 L 11.390625 -16.234375 L 11.390625 -13.40625 L 5.484375 -13.40625 L 5.484375 -9.84375 L 10.984375 -9.84375 L 10.984375 -7.03125 L 5.484375 -7.03125 L 5.484375 -2.84375 L 11.390625 -2.84375 Z M 11.390625 0 "/></g></g></g><g fill="#322bad" fill-opacity="1"><g transform="translate(261.718948, 42.527409)"><g><path d="M 8.9375 -13.59375 C 7.644531 -13.59375 6.640625 -13.101562 5.921875 -12.125 C 5.210938 -11.15625 4.859375 -9.800781 4.859375 -8.0625 C 4.859375 -4.445312 6.21875 -2.640625 8.9375 -2.640625 C 10.070312 -2.640625 11.453125 -2.925781 13.078125 -3.5 L 13.078125 -0.609375 C 11.742188 -0.0546875 10.253906 0.21875 8.609375 0.21875 C 6.253906 0.21875 4.453125 -0.492188 3.203125 -1.921875 C 1.953125 -3.359375 1.328125 -5.414062 1.328125 -8.09375 C 1.328125 -9.78125 1.628906 -11.257812 2.234375 -12.53125 C 2.847656 -13.800781 3.726562 -14.773438 4.875 -15.453125 C 6.03125 -16.128906 7.382812 -16.46875 8.9375 -16.46875 C 10.507812 -16.46875 12.09375 -16.082031 13.6875 -15.3125 L 12.578125 -12.515625 C 11.972656 -12.804688 11.363281 -13.054688 10.75 -13.265625 C 10.132812 -13.484375 9.53125 -13.59375 8.9375 -13.59375 Z M 8.9375 -13.59375 "/></g></g></g><g fill="#322bad" fill-opacity="1"><g transform="translate(279.116493, 42.527409)"><g><path d="M 15.25 -16.234375 L 15.25 -5.734375 C 15.25 -4.523438 14.976562 -3.46875 14.4375 -2.5625 C 13.90625 -1.664062 13.128906 -0.976562 12.109375 -0.5 C 11.097656 -0.0195312 9.90625 0.21875 8.53125 0.21875 C 6.4375 0.21875 4.8125 -0.3125 3.65625 -1.375 C 2.507812 -2.445312 1.9375 -3.910156 1.9375 -5.765625 L 1.9375 -16.234375 L 5.359375 -16.234375 L 5.359375 -6.296875 C 5.359375 -5.046875 5.609375 -4.128906 6.109375 -3.546875 C 6.617188 -2.960938 7.453125 -2.671875 8.609375 -2.671875 C 9.734375 -2.671875 10.550781 -2.960938 11.0625 -3.546875 C 11.570312 -4.128906 11.828125 -5.050781 11.828125 -6.3125 L 11.828125 -16.234375 Z M 15.25 -16.234375 "/></g></g></g><g fill="#322bad" fill-opacity="1"><g transform="translate(299.211578, 42.527409)"><g><path d="M 5.484375 -9.03125 L 6.59375 -9.03125 C 7.675781 -9.03125 8.476562 -9.207031 9 -9.5625 C 9.519531 -9.925781 9.78125 -10.5 9.78125 -11.28125 C 9.78125 -12.050781 9.515625 -12.597656 8.984375 -12.921875 C 8.453125 -13.242188 7.632812 -13.40625 6.53125 -13.40625 L 5.484375 -13.40625 Z M 5.484375 -6.234375 L 5.484375 0 L 2.046875 0 L 2.046875 -16.234375 L 6.765625 -16.234375 C 8.972656 -16.234375 10.601562 -15.832031 11.65625 -15.03125 C 12.71875 -14.226562 13.25 -13.007812 13.25 -11.375 C 13.25 -10.414062 12.984375 -9.5625 12.453125 -8.8125 C 11.929688 -8.070312 11.191406 -7.492188 10.234375 -7.078125 L 15.015625 0 L 11.1875 0 L 7.3125 -6.234375 Z M 5.484375 -6.234375 "/></g></g></g><g fill="#322bad" fill-opacity="1"><g transform="translate(317.130868, 42.527409)"><g><path d="M 8.109375 0 L 0.734375 0 L 0.734375 -1.953125 L 2.703125 -2.859375 L 2.703125 -13.359375 L 0.734375 -14.28125 L 0.734375 -16.234375 L 8.109375 -16.234375 L 8.109375 -14.28125 L 6.140625 -13.359375 L 6.140625 -2.859375 L 8.109375 -1.953125 Z M 8.109375 0 "/></g></g></g><g fill="#322bad" fill-opacity="1"><g transform="translate(328.889106, 42.527409)"><g><path d="M 8.296875 0 L 4.859375 0 L 4.859375 -13.359375 L 0.453125 -13.359375 L 0.453125 -16.234375 L 12.703125 -16.234375 L 12.703125 -13.359375 L 8.296875 -13.359375 Z M 8.296875 0 "/></g></g></g><g fill="#322bad" fill-opacity="1"><g transform="translate(344.965622, 42.527409)"><g><path d="M 7.09375 -9.546875 L 10.484375 -16.234375 L 14.1875 -16.234375 L 8.796875 -6.3125 L 8.796875 0 L 5.390625 0 L 5.390625 -6.203125 L 0 -16.234375 L 3.734375 -16.234375 Z M 7.09375 -9.546875 "/></g></g></g><g fill="#322bad" fill-opacity="1"><g transform="translate(189.309049, 74.148817)"><g><path d="M 8.9375 -13.59375 C 7.644531 -13.59375 6.640625 -13.101562 5.921875 -12.125 C 5.210938 -11.15625 4.859375 -9.800781 4.859375 -8.0625 C 4.859375 -4.445312 6.21875 -2.640625 8.9375 -2.640625 C 10.070312 -2.640625 11.453125 -2.925781 13.078125 -3.5 L 13.078125 -0.609375 C 11.742188 -0.0546875 10.253906 0.21875 8.609375 0.21875 C 6.253906 0.21875 4.453125 -0.492188 3.203125 -1.921875 C 1.953125 -3.359375 1.328125 -5.414062 1.328125 -8.09375 C 1.328125 -9.78125 1.628906 -11.257812 2.234375 -12.53125 C 2.847656 -13.800781 3.726562 -14.773438 4.875 -15.453125 C 6.03125 -16.128906 7.382812 -16.46875 8.9375 -16.46875 C 10.507812 -16.46875 12.09375 -16.082031 13.6875 -15.3125 L 12.578125 -12.515625 C 11.972656 -12.804688 11.363281 -13.054688 10.75 -13.265625 C 10.132812 -13.484375 9.53125 -13.59375 8.9375 -13.59375 Z M 8.9375 -13.59375 "/></g></g></g><g fill="#322bad" fill-opacity="1"><g transform="translate(206.706592, 74.148817)"><g><path d="M 16.765625 -8.140625 C 16.765625 -5.453125 16.097656 -3.382812 14.765625 -1.9375 C 13.441406 -0.5 11.535156 0.21875 9.046875 0.21875 C 6.554688 0.21875 4.644531 -0.5 3.3125 -1.9375 C 1.988281 -3.382812 1.328125 -5.457031 1.328125 -8.15625 C 1.328125 -10.851562 1.992188 -12.914062 3.328125 -14.34375 C 4.660156 -15.769531 6.570312 -16.484375 9.0625 -16.484375 C 11.5625 -16.484375 13.46875 -15.765625 14.78125 -14.328125 C 16.101562 -12.890625 16.765625 -10.828125 16.765625 -8.140625 Z M 4.921875 -8.140625 C 4.921875 -6.328125 5.265625 -4.960938 5.953125 -4.046875 C 6.648438 -3.128906 7.679688 -2.671875 9.046875 -2.671875 C 11.796875 -2.671875 13.171875 -4.492188 13.171875 -8.140625 C 13.171875 -11.796875 11.800781 -13.625 9.0625 -13.625 C 7.695312 -13.625 6.664062 -13.160156 5.96875 -12.234375 C 5.269531 -11.316406 4.921875 -9.953125 4.921875 -8.140625 Z M 4.921875 -8.140625 "/></g></g></g><g fill="#322bad" fill-opacity="1"><g transform="translate(227.711955, 74.148817)"><g><path d="M 5.484375 -9.03125 L 6.59375 -9.03125 C 7.675781 -9.03125 8.476562 -9.207031 9 -9.5625 C 9.519531 -9.925781 9.78125 -10.5 9.78125 -11.28125 C 9.78125 -12.050781 9.515625 -12.597656 8.984375 -12.921875 C 8.453125 -13.242188 7.632812 -13.40625 6.53125 -13.40625 L 5.484375 -13.40625 Z M 5.484375 -6.234375 L 5.484375 0 L 2.046875 0 L 2.046875 -16.234375 L 6.765625 -16.234375 C 8.972656 -16.234375 10.601562 -15.832031 11.65625 -15.03125 C 12.71875 -14.226562 13.25 -13.007812 13.25 -11.375 C 13.25 -10.414062 12.984375 -9.5625 12.453125 -8.8125 C 11.929688 -8.070312 11.191406 -7.492188 10.234375 -7.078125 L 15.015625 0 L 11.1875 0 L 7.3125 -6.234375 Z M 5.484375 -6.234375 "/></g></g></g><g fill="#322bad" fill-opacity="1"><g transform="translate(245.631241, 74.148817)"><g><path d="M 16.4375 0 L 12.0625 0 L 5 -12.28125 L 4.90625 -12.28125 C 5.050781 -10.113281 5.125 -8.566406 5.125 -7.640625 L 5.125 0 L 2.046875 0 L 2.046875 -16.234375 L 6.390625 -16.234375 L 13.4375 -4.078125 L 13.515625 -4.078125 C 13.398438 -6.179688 13.34375 -7.671875 13.34375 -8.546875 L 13.34375 -16.234375 L 16.4375 -16.234375 Z M 16.4375 0 "/></g></g></g><g fill="#322bad" fill-opacity="1"><g transform="translate(267.025143, 74.148817)"><g><path d="M 11.390625 0 L 2.046875 0 L 2.046875 -16.234375 L 11.390625 -16.234375 L 11.390625 -13.40625 L 5.484375 -13.40625 L 5.484375 -9.84375 L 10.984375 -9.84375 L 10.984375 -7.03125 L 5.484375 -7.03125 L 5.484375 -2.84375 L 11.390625 -2.84375 Z M 11.390625 0 "/></g></g></g><g fill="#322bad" fill-opacity="1"><g transform="translate(282.668731, 74.148817)"><g><path d="M 5.484375 -9.03125 L 6.59375 -9.03125 C 7.675781 -9.03125 8.476562 -9.207031 9 -9.5625 C 9.519531 -9.925781 9.78125 -10.5 9.78125 -11.28125 C 9.78125 -12.050781 9.515625 -12.597656 8.984375 -12.921875 C 8.453125 -13.242188 7.632812 -13.40625 6.53125 -13.40625 L 5.484375 -13.40625 Z M 5.484375 -6.234375 L 5.484375 0 L 2.046875 0 L 2.046875 -16.234375 L 6.765625 -16.234375 C 8.972656 -16.234375 10.601562 -15.832031 11.65625 -15.03125 C 12.71875 -14.226562 13.25 -13.007812 13.25 -11.375 C 13.25 -10.414062 12.984375 -9.5625 12.453125 -8.8125 C 11.929688 -8.070312 11.191406 -7.492188 10.234375 -7.078125 L 15.015625 0 L 11.1875 0 L 7.3125 -6.234375 Z M 5.484375 -6.234375 "/></g></g></g></svg>